<?xml version="1.0" encoding="UTF-8" standalone="no"?>
<!-- Created with Inkscape (http://www.inkscape.org/) -->

<svg
   width="512"
   height="512"
   viewBox="0 0 512 512"
   version="1.1"
   id="svg1"
   inkscape:version="1.4 (e7c3feb100, 2024-10-09)"
   sodipodi:docname="pause.svg"
   xmlns:inkscape="http://www.inkscape.org/namespaces/inkscape"
   xmlns:sodipodi="http://sodipodi.sourceforge.net/DTD/sodipodi-0.dtd"
   xmlns="http://www.w3.org/2000/svg"
   xmlns:svg="http://www.w3.org/2000/svg">
  <sodipodi:namedview
     id="namedview1"
     pagecolor="#ffffff"
     bordercolor="#000000"
     borderopacity="0.25"
     inkscape:showpageshadow="2"
     inkscape:pageopacity="0.0"
     inkscape:pagecheckerboard="0"
     inkscape:deskcolor="#d1d1d1"
     inkscape:document-units="px"
     inkscape:zoom="1.1259766"
     inkscape:cx="-13.321769"
     inkscape:cy="178.95576"
     inkscape:window-width="2560"
     inkscape:window-height="1371"
     inkscape:window-x="0"
     inkscape:window-y="0"
     inkscape:window-maximized="1"
     inkscape:current-layer="layer1" />
  <defs
     id="defs1" />
  <g
     inkscape:label="Ebene 1"
     inkscape:groupmode="layer"
     id="layer1">
    <path
       d="M 256,0 A 256,256 0 0 0 0,256 256,256 0 0 0 256,512 256,256 0 0 0 512,256 256,256 0 0 0 256,0 Z m 0,25 A 231,231 0 0 1 487,256 231,231 0 0 1 256,487 231,231 0 0 1 25,256 231,231 0 0 1 256,25 Z"
       style="stroke:#000000;stroke-width:0;fill:#7f7f7f;fill-opacity:1"
       id="path2" />
    <rect
       style="fill:#7f7f7f;stroke:#000000;stroke-width:0;fill-opacity:1"
       id="rect2"
       width="50"
       height="253.5"
       x="180.42325"
       y="126.75" />
    <rect
       style="fill:#7f7f7f;stroke:#000000;stroke-width:0;fill-opacity:1"
       id="rect2-2"
       width="50"
       height="253.5"
       x="280.42325"
       y="126.75" />
  </g>
</svg>
